<mxfile host="app.diagrams.net" modified="2023-11-23T13:45:50.512Z" agent="Mozilla/5.0 (Windows NT 10.0; Win64; x64; rv:109.0) Gecko/20100101 Firefox/119.0" etag="778xwWt2g7HNo37YimF1" version="22.1.3" type="onedrive">
  <diagram id="prtHgNgQTEPvFCAcTncT" name="Page-1">
    <mxGraphModel grid="1" page="1" gridSize="10" guides="1" tooltips="1" connect="1" arrows="1" fold="1" pageScale="1" pageWidth="827" pageHeight="1169" math="0" shadow="0">
      <root>
        <mxCell id="0" />
        <mxCell id="1" parent="0" />
        <mxCell id="jFbv1wJLPSqqX2imV6Qk-8" style="edgeStyle=orthogonalEdgeStyle;rounded=0;orthogonalLoop=1;jettySize=auto;html=1;strokeWidth=3;" edge="1" parent="1" source="jFbv1wJLPSqqX2imV6Qk-1">
          <mxGeometry relative="1" as="geometry">
            <mxPoint x="420" y="200" as="targetPoint" />
          </mxGeometry>
        </mxCell>
        <mxCell id="jFbv1wJLPSqqX2imV6Qk-1" value="&lt;font style=&quot;font-size: 16px;&quot; face=&quot;Lucida Console&quot;&gt;&lt;b&gt;Chapter 2&lt;/b&gt;&lt;br&gt;Literature Review&lt;/font&gt;" style="rounded=1;whiteSpace=wrap;html=1;strokeWidth=3;" vertex="1" parent="1">
          <mxGeometry x="340" y="40" width="160" height="120" as="geometry" />
        </mxCell>
        <mxCell id="jFbv1wJLPSqqX2imV6Qk-7" style="edgeStyle=orthogonalEdgeStyle;rounded=0;orthogonalLoop=1;jettySize=auto;html=1;endArrow=none;endFill=0;startArrow=classic;startFill=1;strokeWidth=3;" edge="1" parent="1" source="jFbv1wJLPSqqX2imV6Qk-2">
          <mxGeometry relative="1" as="geometry">
            <mxPoint x="725" y="200" as="targetPoint" />
          </mxGeometry>
        </mxCell>
        <mxCell id="jFbv1wJLPSqqX2imV6Qk-2" value="&lt;font style=&quot;font-size: 16px;&quot; face=&quot;Lucida Console&quot;&gt;&lt;b&gt;Chapter 6&lt;/b&gt;&lt;br&gt;A Comparative Analysis of the GEH Statistic as a Loss Function and Evaluation Metric for Traffic Forecasting&lt;br&gt;&lt;/font&gt;" style="rounded=1;whiteSpace=wrap;html=1;strokeWidth=3;" vertex="1" parent="1">
          <mxGeometry x="645" y="241" width="160" height="239" as="geometry" />
        </mxCell>
        <mxCell id="jFbv1wJLPSqqX2imV6Qk-10" style="edgeStyle=orthogonalEdgeStyle;rounded=0;orthogonalLoop=1;jettySize=auto;html=1;startArrow=classic;startFill=1;endArrow=none;endFill=0;strokeWidth=3;" edge="1" parent="1" source="jFbv1wJLPSqqX2imV6Qk-3">
          <mxGeometry relative="1" as="geometry">
            <mxPoint x="522" y="200" as="targetPoint" />
          </mxGeometry>
        </mxCell>
        <mxCell id="jFbv1wJLPSqqX2imV6Qk-14" style="edgeStyle=orthogonalEdgeStyle;rounded=0;orthogonalLoop=1;jettySize=auto;html=1;entryX=0;entryY=0.5;entryDx=0;entryDy=0;strokeWidth=3;" edge="1" parent="1" source="jFbv1wJLPSqqX2imV6Qk-3" target="jFbv1wJLPSqqX2imV6Qk-2">
          <mxGeometry relative="1" as="geometry" />
        </mxCell>
        <mxCell id="jFbv1wJLPSqqX2imV6Qk-3" value="&lt;font style=&quot;font-size: 16px;&quot; face=&quot;Lucida Console&quot;&gt;&lt;b&gt;Chapter 5&lt;/b&gt;&lt;br&gt;&lt;/font&gt;&lt;div&gt;&lt;font style=&quot;font-size: 16px;&quot; face=&quot;Lucida Console&quot;&gt;MIHDSAN:&amp;nbsp;&lt;/font&gt;&lt;/div&gt;&lt;div&gt;&lt;font style=&quot;font-size: 16px;&quot; face=&quot;Lucida Console&quot;&gt;A Novel Deep Learning Model for Traffic Forecasting&lt;/font&gt;&lt;/div&gt;" style="rounded=1;whiteSpace=wrap;html=1;strokeWidth=3;" vertex="1" parent="1">
          <mxGeometry x="442" y="241" width="160" height="239" as="geometry" />
        </mxCell>
        <mxCell id="jFbv1wJLPSqqX2imV6Qk-9" style="edgeStyle=orthogonalEdgeStyle;rounded=0;orthogonalLoop=1;jettySize=auto;html=1;startArrow=classic;startFill=1;endArrow=none;endFill=0;strokeWidth=3;" edge="1" parent="1" source="jFbv1wJLPSqqX2imV6Qk-4">
          <mxGeometry relative="1" as="geometry">
            <mxPoint x="318" y="200" as="targetPoint" />
          </mxGeometry>
        </mxCell>
        <mxCell id="jFbv1wJLPSqqX2imV6Qk-13" style="edgeStyle=orthogonalEdgeStyle;rounded=0;orthogonalLoop=1;jettySize=auto;html=1;strokeWidth=3;entryX=0;entryY=0.5;entryDx=0;entryDy=0;" edge="1" parent="1" source="jFbv1wJLPSqqX2imV6Qk-4" target="jFbv1wJLPSqqX2imV6Qk-3">
          <mxGeometry relative="1" as="geometry">
            <mxPoint x="440" y="301" as="targetPoint" />
          </mxGeometry>
        </mxCell>
        <mxCell id="jFbv1wJLPSqqX2imV6Qk-4" value="&lt;font style=&quot;font-size: 16px;&quot; face=&quot;Lucida Console&quot;&gt;&lt;b&gt;Chapter 4&lt;/b&gt;&lt;br&gt;Problem Formulation and Gramian Angular Field Transformations&lt;br&gt;&lt;/font&gt;" style="rounded=1;whiteSpace=wrap;html=1;strokeWidth=3;" vertex="1" parent="1">
          <mxGeometry x="238" y="241" width="160" height="239" as="geometry" />
        </mxCell>
        <mxCell id="jFbv1wJLPSqqX2imV6Qk-6" style="edgeStyle=orthogonalEdgeStyle;rounded=0;orthogonalLoop=1;jettySize=auto;html=1;endArrow=none;endFill=0;startArrow=classic;startFill=1;strokeWidth=3;" edge="1" parent="1" source="jFbv1wJLPSqqX2imV6Qk-5">
          <mxGeometry relative="1" as="geometry">
            <mxPoint x="115" y="200" as="targetPoint" />
          </mxGeometry>
        </mxCell>
        <mxCell id="jFbv1wJLPSqqX2imV6Qk-12" style="edgeStyle=orthogonalEdgeStyle;rounded=0;orthogonalLoop=1;jettySize=auto;html=1;entryX=0;entryY=0.5;entryDx=0;entryDy=0;strokeWidth=3;" edge="1" parent="1" source="jFbv1wJLPSqqX2imV6Qk-5" target="jFbv1wJLPSqqX2imV6Qk-4">
          <mxGeometry relative="1" as="geometry" />
        </mxCell>
        <mxCell id="jFbv1wJLPSqqX2imV6Qk-5" value="&lt;font style=&quot;font-size: 16px;&quot; face=&quot;Lucida Console&quot;&gt;&lt;b&gt;Chapter 3&lt;/b&gt;&lt;br&gt;Traffic Data Acquisition and Preparation&lt;br&gt;&lt;/font&gt;" style="rounded=1;whiteSpace=wrap;html=1;strokeWidth=3;" vertex="1" parent="1">
          <mxGeometry x="35" y="241" width="160" height="239" as="geometry" />
        </mxCell>
        <mxCell id="jFbv1wJLPSqqX2imV6Qk-11" value="" style="endArrow=none;html=1;rounded=0;strokeWidth=3;" edge="1" parent="1">
          <mxGeometry width="50" height="50" relative="1" as="geometry">
            <mxPoint x="115" y="200" as="sourcePoint" />
            <mxPoint x="725" y="200" as="targetPoint" />
          </mxGeometry>
        </mxCell>
      </root>
    </mxGraphModel>
  </diagram>
</mxfile>
